<svg width="84" height="84" viewBox="0 0 84 84" fill="none" xmlns="http://www.w3.org/2000/svg" xmlns:xlink="http://www.w3.org/1999/xlink">
<path d="M83.498,41.402C83.498,64.372 64.878,82.993 41.908,82.993C18.939,82.993 0.318,64.372 0.318,41.402C0.318,20.643 15.527,3.438 35.41,0.317L35.41,29.38L24.85,29.38L24.85,41.402L35.41,41.402L35.41,50.565C35.41,60.989 41.619,66.746 51.119,66.746C55.669,66.746 60.429,65.934 60.429,65.934L60.429,55.699L55.184,55.699C50.018,55.699 48.407,52.493 48.407,49.204L48.407,41.402L59.941,41.402L58.098,29.38L48.407,29.38L48.407,0.317C68.289,3.438 83.498,20.643 83.498,41.402Z" fill="#1E31DF"/>
</svg>
