<svg width="86" height="92" viewBox="0 0 86 92" fill="none" xmlns="http://www.w3.org/2000/svg" xmlns:xlink="http://www.w3.org/1999/xlink">
<path d="M40.076,0.767C40.627,-1.171 43.373,-1.171 43.924,0.767L52.446,30.744C52.69,31.603 53.476,32.197 54.37,32.197L82.461,32.197C84.333,32.197 85.179,34.539 83.738,35.735L60.573,54.971C59.964,55.477 59.71,56.295 59.927,57.057L68.664,87.79C69.202,89.681 66.975,91.131 65.463,89.876L43.278,71.454C42.537,70.839 41.463,70.839 40.722,71.454L18.537,89.876C17.025,91.131 14.798,89.681 15.336,87.79L24.073,57.057C24.29,56.295 24.036,55.477 23.427,54.971L0.262,35.735C-1.179,34.539 -0.333,32.197 1.539,32.197L29.63,32.197C30.524,32.197 31.31,31.603 31.554,30.744L40.076,0.767Z" fill="#E9BE29"/>
</svg>
