<svg width="36" height="42" viewBox="0 0 36 42" fill="none" xmlns="http://www.w3.org/2000/svg" xmlns:xlink="http://www.w3.org/1999/xlink">
<path d="M15.06,1.775C15.564,-0.246 18.436,-0.246 18.94,1.775L21.579,12.347C21.801,13.237 22.602,13.862 23.52,13.862L32.975,13.862C34.784,13.862 35.663,16.072 34.349,17.315L25.871,25.335C25.346,25.831 25.129,26.571 25.304,27.272L28.321,39.36C28.805,41.299 26.459,42.671 25.007,41.297L18.374,35.024C17.603,34.295 16.397,34.295 15.626,35.024L8.993,41.297C7.541,42.671 5.195,41.299 5.679,39.36L8.696,27.272C8.871,26.571 8.654,25.831 8.129,25.335L-0.349,17.315C-1.663,16.072 -0.784,13.862 1.025,13.862L10.48,13.862C11.398,13.862 12.199,13.237 12.421,12.347L15.06,1.775Z" fill="#E9BE29"/>
</svg>
