<svg width="80" height="92" viewBox="0 0 80 92" fill="none" xmlns="http://www.w3.org/2000/svg" xmlns:xlink="http://www.w3.org/1999/xlink">
<path d="M37.067,1.273C37.594,-0.708 40.406,-0.708 40.933,1.273L48.756,30.71C48.989,31.587 49.782,32.197 50.689,32.197L76.737,32.197C78.576,32.197 79.44,34.47 78.065,35.692L56.346,54.985C55.781,55.487 55.547,56.264 55.741,56.994L63.869,87.578C64.378,89.494 62.09,90.904 60.608,89.587L40.328,71.573C39.571,70.9 38.429,70.9 37.672,71.573L17.392,89.587C15.91,90.904 13.622,89.494 14.131,87.578L22.259,56.994C22.453,56.264 22.219,55.487 21.654,54.985L-0.065,35.692C-1.44,34.47 -0.576,32.197 1.263,32.197L27.311,32.197C28.218,32.197 29.011,31.587 29.244,30.71L37.067,1.273Z" fill="#E9BE29"/>
</svg>
