<svg width="38" height="44" viewBox="0 0 38 44" fill="none" xmlns="http://www.w3.org/2000/svg" xmlns:xlink="http://www.w3.org/1999/xlink">
<path d="M16.065,1.4C16.586,-0.592 19.414,-0.592 19.935,1.4L22.803,12.368C23.033,13.248 23.828,13.862 24.738,13.862L34.8,13.862C36.632,13.862 37.5,16.119 36.14,17.347L27.305,25.323C26.751,25.824 26.522,26.591 26.711,27.314L29.903,39.524C30.406,41.446 28.103,42.845 26.628,41.514L19.34,34.934C18.579,34.247 17.421,34.247 16.66,34.934L9.372,41.514C7.897,42.845 5.594,41.446 6.097,39.524L9.289,27.314C9.478,26.591 9.249,25.824 8.695,25.323L-0.14,17.347C-1.5,16.119 -0.632,13.862 1.2,13.862L11.262,13.862C12.172,13.862 12.967,13.248 13.197,12.368L16.065,1.4Z" fill="#E9BE29"/>
</svg>
