<svg width="84" height="84" viewBox="0 0 84 84" fill="none" xmlns="http://www.w3.org/2000/svg" xmlns:xlink="http://www.w3.org/1999/xlink">
<path d="M41.908,0.318C30.612,0.318 29.198,0.365 24.762,0.567C20.334,0.77 17.309,1.474 14.664,2.503C11.891,3.545 9.376,5.181 7.297,7.299C5.182,9.377 3.545,11.89 2.5,14.664C1.477,17.309 0.77,20.337 0.568,24.765C0.368,29.198 0.318,30.609 0.318,41.908C0.318,53.207 0.365,54.618 0.568,59.054C0.77,63.482 1.474,66.507 2.503,69.152C3.545,71.925 5.181,74.44 7.3,76.519C9.377,78.634 11.89,80.271 14.664,81.316C17.309,82.342 20.334,83.046 24.762,83.249C29.198,83.451 30.612,83.498 41.908,83.498C53.204,83.498 54.618,83.451 59.054,83.249C63.482,83.046 66.507,82.342 69.153,81.313C71.925,80.271 74.44,78.635 76.52,76.517C78.635,74.44 80.271,71.926 81.316,69.152C82.342,66.507 83.046,63.482 83.249,59.054C83.451,54.618 83.498,53.204 83.498,41.908C83.498,30.612 83.451,29.198 83.249,24.762C83.046,20.334 82.342,17.309 81.314,14.664C80.269,11.888 78.632,9.374 76.517,7.297C74.44,5.182 71.927,3.545 69.153,2.5C66.507,1.477 63.48,0.77 59.052,0.567C54.618,0.368 53.207,0.318 41.908,0.318ZM41.908,7.812C53.013,7.812 54.33,7.854 58.716,8.054C62.77,8.239 64.971,8.913 66.438,9.487C68.379,10.239 69.765,11.142 71.221,12.595C72.677,14.051 73.578,15.437 74.329,17.378C74.9,18.845 75.577,21.046 75.763,25.1C75.962,29.486 76.004,30.803 76.004,41.908C76.004,53.013 75.962,54.33 75.763,58.716C75.577,62.77 74.903,64.971 74.329,66.438C73.664,68.244 72.601,69.879 71.221,71.221C69.879,72.602 68.245,73.664 66.438,74.329C64.971,74.9 62.77,75.577 58.716,75.762C54.33,75.962 53.016,76.004 41.908,76.004C30.801,76.004 29.487,75.962 25.1,75.762C21.047,75.577 18.845,74.903 17.378,74.329C15.572,73.663 13.937,72.601 12.595,71.221C11.215,69.879 10.153,68.244 9.487,66.438C8.916,64.971 8.24,62.77 8.054,58.716C7.854,54.33 7.813,53.013 7.813,41.908C7.813,30.803 7.854,29.486 8.054,25.1C8.24,21.046 8.913,18.845 9.487,17.378C10.239,15.437 11.143,14.051 12.595,12.595C13.937,11.215 15.572,10.153 17.378,9.487C18.845,8.916 21.047,8.239 25.1,8.054C29.487,7.854 30.804,7.812 41.908,7.812Z" clip-rule="evenodd" fill-rule="evenodd" fill="#000000"/>
<path d="M41.908,55.785C40.086,55.785 38.281,55.426 36.598,54.729C34.914,54.032 33.384,53.009 32.096,51.721C30.807,50.432 29.785,48.902 29.087,47.219C28.39,45.535 28.031,43.73 28.031,41.908C28.031,40.086 28.39,38.281 29.087,36.597C29.785,34.914 30.807,33.384 32.096,32.095C33.384,30.807 34.914,29.784 36.598,29.087C38.281,28.39 40.086,28.031 41.908,28.031C45.589,28.031 49.118,29.493 51.721,32.095C54.323,34.698 55.786,38.228 55.786,41.908C55.786,45.588 54.323,49.118 51.721,51.721C49.118,54.323 45.589,55.785 41.908,55.785ZM41.908,20.531C36.239,20.531 30.801,22.783 26.792,26.792C22.783,30.801 20.531,36.238 20.531,41.908C20.531,47.578 22.783,53.015 26.792,57.024C30.801,61.033 36.239,63.285 41.908,63.285C47.578,63.285 53.015,61.033 57.024,57.024C61.033,53.015 63.286,47.578 63.286,41.908C63.286,36.238 61.033,30.801 57.024,26.792C53.015,22.783 47.578,20.531 41.908,20.531ZM69.505,20.143C69.505,21.483 68.972,22.768 68.025,23.716C67.077,24.663 65.792,25.196 64.452,25.196C63.111,25.196 61.826,24.663 60.878,23.716C59.931,22.768 59.398,21.483 59.398,20.143C59.398,18.802 59.931,17.517 60.878,16.569C61.826,15.622 63.111,15.089 64.452,15.089C65.792,15.089 67.077,15.622 68.025,16.569C68.972,17.517 69.505,18.802 69.505,20.143Z" clip-rule="evenodd" fill-rule="evenodd" fill="#000000"/>
</svg>
