<svg width="70" height="52" viewBox="0 0 70 52" fill="none" xmlns="http://www.w3.org/2000/svg" xmlns:xlink="http://www.w3.org/1999/xlink">
<path d="M62.88,4.583C59.237,1.505 54.425,-0.36 49.313,-0.675C44.2,-0.991 39.124,0.264 35,2.862C30.653,0.102 25.242,-1.149 19.857,-0.64C14.472,-0.131 9.513,2.101 5.979,5.606C2.444,9.111 0.597,13.629 0.809,18.251C1.021,22.872 3.276,27.254 7.12,30.513L27.62,48.158C29.542,49.797 32.147,50.717 34.863,50.717C37.58,50.717 40.185,49.797 42.107,48.158L62.607,30.513C64.626,28.829 66.235,26.821 67.342,24.604C68.449,22.387 69.032,20.006 69.057,17.596C69.083,15.187 68.55,12.797 67.49,10.564C66.43,8.33 64.863,6.298 62.88,4.583L62.88,4.583ZM58.063,26.342L37.563,43.842C37.245,44.115 36.867,44.332 36.451,44.48C36.034,44.628 35.588,44.704 35.137,44.704C34.686,44.704 34.239,44.628 33.823,44.48C33.406,44.332 33.029,44.115 32.711,43.842L12.211,26.342C9.531,24.004 8.031,20.863 8.031,17.592C8.031,14.321 9.531,11.18 12.211,8.842C14.941,6.54 18.624,5.25 22.461,5.25C26.298,5.25 29.98,6.54 32.711,8.842C33.029,9.115 33.406,9.332 33.823,9.48C34.239,9.628 34.686,9.704 35.137,9.704C35.588,9.704 36.034,9.628 36.451,9.48C36.867,9.332 37.245,9.115 37.563,8.842C40.367,6.937 43.894,5.98 47.472,6.153C51.05,6.326 54.429,7.617 56.963,9.781C59.497,11.944 61.01,14.828 61.212,17.882C61.415,20.937 60.294,23.948 58.063,26.342L58.063,26.342Z" fill="#000000"/>
</svg>
