<svg width="92" height="66" viewBox="0 0 92 66" fill="none" xmlns="http://www.w3.org/2000/svg" xmlns:xlink="http://www.w3.org/1999/xlink">
<path d="M81.655,2.549C85.594,3.604 88.69,6.699 89.744,10.639C91.65,17.771 91.657,32.662 91.657,32.662C91.657,32.662 91.657,47.553 89.744,54.686C88.69,58.625 85.594,61.721 81.655,62.775C74.522,64.688 45.908,64.688 45.908,64.688C45.908,64.688 17.294,64.688 10.161,62.775C6.222,61.721 3.127,58.625 2.072,54.686C0.159,47.553 0.159,32.662 0.159,32.662C0.159,32.662 0.159,17.771 2.072,10.639C3.127,6.699 6.222,3.604 10.161,2.549C17.294,0.636 45.908,0.636 45.908,0.636C45.908,0.636 74.522,0.636 81.655,2.549ZM60.521,32.663L36.75,46.387L36.75,18.94L60.521,32.663Z" clip-rule="evenodd" fill-rule="evenodd" fill="#FF0000"/>
</svg>
