<svg width="66" height="70" viewBox="0 0 66 70" fill="none" xmlns="http://www.w3.org/2000/svg" xmlns:xlink="http://www.w3.org/1999/xlink">
<path d="M29.269,-0.364C24.565,-0.363 19.93,0.848 15.752,3.169C11.573,5.49 7.973,8.852 5.252,12.975C2.532,17.098 0.77,21.862 0.114,26.867C-0.542,31.872 -0.073,36.973 1.483,41.743C3.038,46.513 5.635,50.814 9.054,54.284C12.474,57.754 16.617,60.294 21.138,61.69C25.658,63.086 30.424,63.299 35.037,62.309C39.649,61.319 43.974,59.157 47.649,56.002L59.673,68.923C60.29,69.563 61.116,69.918 61.974,69.91C62.832,69.902 63.653,69.532 64.259,68.88C64.866,68.228 65.21,67.347 65.217,66.425C65.225,65.503 64.895,64.615 64.299,63.952L52.275,51.031C55.737,46.375 57.905,40.764 58.529,34.843C59.154,28.922 58.21,22.932 55.806,17.562C53.402,12.192 49.636,7.66 44.941,4.489C40.247,1.318 34.814,-0.364 29.269,-0.364ZM9.638,31.279C9.638,28.509 10.146,25.765 11.132,23.206C12.119,20.647 13.565,18.321 15.388,16.362C17.211,14.404 19.375,12.85 21.756,11.79C24.138,10.729 26.691,10.184 29.269,10.184C31.847,10.184 34.399,10.729 36.781,11.79C39.163,12.85 41.327,14.404 43.149,16.362C44.972,18.321 46.418,20.647 47.405,23.206C48.391,25.765 48.899,28.509 48.899,31.279C48.899,36.874 46.831,42.239 43.149,46.195C39.468,50.151 34.475,52.374 29.269,52.374C24.062,52.374 19.069,50.151 15.388,46.195C11.706,42.239 9.638,36.874 9.638,31.279Z" clip-rule="evenodd" fill-rule="evenodd" fill="#000000"/>
</svg>
