<svg width="98" height="80" viewBox="0 0 98 80" fill="none" xmlns="http://www.w3.org/2000/svg" xmlns:xlink="http://www.w3.org/1999/xlink">
<path d="M87.44,8.5C82.316,3.717 75.525,0.798 68.292,0.27C61.059,-0.258 53.862,1.639 48,5.62C41.85,1.361 34.196,-0.57 26.578,0.215C18.961,1.001 11.945,4.444 6.945,9.852C1.946,15.261 -0.668,22.232 -0.368,29.362C-0.069,36.492 3.122,43.252 8.56,48.28L38.575,76.27C41.088,78.573 44.473,79.864 48,79.864C51.526,79.864 54.911,78.573 57.425,76.27L87.44,48.28C93.083,42.994 96.251,35.843 96.251,28.39C96.251,20.937 93.083,13.786 87.44,8.5L87.44,8.5ZM80.625,42.07L50.61,70.015C50.268,70.336 49.862,70.591 49.414,70.765C48.966,70.939 48.485,71.028 48,71.028C47.515,71.028 47.034,70.939 46.586,70.765C46.138,70.591 45.731,70.336 45.39,70.015L15.375,41.935C11.584,38.327 9.462,33.481 9.462,28.435C9.462,23.388 11.584,18.542 15.375,14.935C19.238,11.384 24.447,9.393 29.875,9.393C35.303,9.393 40.512,11.384 44.375,14.935C44.824,15.357 45.359,15.691 45.948,15.92C46.537,16.148 47.169,16.266 47.807,16.266C48.445,16.266 49.076,16.148 49.665,15.92C50.254,15.691 50.789,15.357 51.238,14.935C55.101,11.384 60.31,9.393 65.738,9.393C71.166,9.393 76.376,11.384 80.238,14.935C84.081,18.495 86.273,23.315 86.345,28.361C86.418,33.408 84.364,38.281 80.625,41.935L80.625,42.07Z" fill="#000000"/>
</svg>
