<svg width="28" height="54" viewBox="0 0 28 54" fill="none" xmlns="http://www.w3.org/2000/svg" xmlns:xlink="http://www.w3.org/1999/xlink">
<path d="M25.095,24.219L5.756,2.09C5.439,1.723 5.061,1.432 4.644,1.233C4.228,1.034 3.782,0.932 3.331,0.932C2.879,0.932 2.433,1.034 2.017,1.233C1.6,1.432 1.222,1.723 0.905,2.09C0.268,2.824 -0.089,3.817 -0.089,4.851C-0.089,5.886 0.268,6.879 0.905,7.613L17.817,27.196L0.905,46.583C0.268,47.317 -0.089,48.31 -0.089,49.345C-0.089,50.379 0.268,51.372 0.905,52.106C1.221,52.476 1.598,52.77 2.015,52.972C2.431,53.174 2.878,53.279 3.331,53.281C3.783,53.279 4.23,53.174 4.646,52.972C5.063,52.77 5.44,52.476 5.756,52.106L25.095,29.977C25.442,29.61 25.718,29.165 25.908,28.669C26.097,28.174 26.195,27.639 26.195,27.098C26.195,26.557 26.097,26.022 25.908,25.527C25.718,25.031 25.442,24.586 25.095,24.219L25.095,24.219Z" fill="#FFFFFF"/>
</svg>
