<svg width="18" height="12" viewBox="0 0 18 12" fill="none" xmlns="http://www.w3.org/2000/svg" xmlns:xlink="http://www.w3.org/1999/xlink">
<path d="M15.621,1.241C15.353,0.927 14.991,0.751 14.614,0.751C14.237,0.751 13.875,0.927 13.607,1.241L8.48,7.194L3.424,1.241C3.156,0.927 2.795,0.751 2.417,0.751C2.04,0.751 1.678,0.927 1.41,1.241C1.277,1.397 1.17,1.583 1.098,1.788C1.025,1.993 0.988,2.213 0.988,2.435C0.988,2.657 1.025,2.876 1.098,3.081C1.17,3.286 1.277,3.472 1.41,3.629L7.466,10.76C7.599,10.917 7.757,11.042 7.931,11.128C8.105,11.213 8.291,11.257 8.48,11.257C8.668,11.257 8.855,11.213 9.029,11.128C9.203,11.042 9.361,10.917 9.494,10.76L15.621,3.629C15.755,3.472 15.861,3.286 15.933,3.081C16.006,2.876 16.043,2.657 16.043,2.435C16.043,2.213 16.006,1.993 15.933,1.788C15.861,1.583 15.755,1.397 15.621,1.241Z" fill="#000000"/>
</svg>
