<svg width="22" height="14" viewBox="0 0 22 14" fill="none" xmlns="http://www.w3.org/2000/svg" xmlns:xlink="http://www.w3.org/1999/xlink">
<path d="M20,0.34C19.625,-0.033 19.118,-0.242 18.59,-0.242C18.062,-0.242 17.555,-0.033 17.18,0.34L10,7.42L2.92,0.34C2.545,-0.033 2.038,-0.242 1.51,-0.242C0.982,-0.242 0.475,-0.033 0.1,0.34C-0.088,0.526 -0.236,0.747 -0.338,0.991C-0.439,1.234 -0.492,1.496 -0.492,1.76C-0.492,2.024 -0.439,2.285 -0.338,2.529C-0.236,2.773 -0.088,2.994 0.1,3.18L8.58,11.66C8.766,11.847 8.987,11.996 9.231,12.098C9.474,12.199 9.736,12.251 10,12.251C10.264,12.251 10.525,12.199 10.769,12.098C11.013,11.996 11.234,11.847 11.42,11.66L20,3.18C20.187,2.994 20.336,2.773 20.438,2.529C20.539,2.285 20.592,2.024 20.592,1.76C20.592,1.496 20.539,1.234 20.438,0.991C20.336,0.747 20.187,0.526 20,0.34Z" fill="#000000"/>
</svg>
