<svg width="140" height="116" viewBox="0 0 140 116" fill="none" xmlns="http://www.w3.org/2000/svg" xmlns:xlink="http://www.w3.org/1999/xlink">
<path d="M82.833,34L89.75,34C91.584,34 93.343,33.394 94.64,32.316C95.938,31.238 96.666,29.775 96.666,28.25C96.666,26.725 95.938,25.262 94.64,24.184C93.343,23.106 91.584,22.5 89.75,22.5L82.833,22.5C80.999,22.5 79.239,23.106 77.942,24.184C76.645,25.262 75.916,26.725 75.916,28.25C75.916,29.775 76.645,31.238 77.942,32.316C79.239,33.394 80.999,34 82.833,34L82.833,34ZM82.833,57L89.75,57C91.584,57 93.343,56.394 94.64,55.316C95.938,54.238 96.666,52.775 96.666,51.25C96.666,49.725 95.938,48.262 94.64,47.184C93.343,46.106 91.584,45.5 89.75,45.5L82.833,45.5C80.999,45.5 79.239,46.106 77.942,47.184C76.645,48.262 75.916,49.725 75.916,51.25C75.916,52.775 76.645,54.238 77.942,55.316C79.239,56.394 80.999,57 82.833,57L82.833,57ZM48.25,34L55.166,34C57.001,34 58.76,33.394 60.057,32.316C61.354,31.238 62.083,29.775 62.083,28.25C62.083,26.725 61.354,25.262 60.057,24.184C58.76,23.106 57.001,22.5 55.166,22.5L48.25,22.5C46.415,22.5 44.656,23.106 43.359,24.184C42.062,25.262 41.333,26.725 41.333,28.25C41.333,29.775 42.062,31.238 43.359,32.316C44.656,33.394 46.415,34 48.25,34L48.25,34ZM48.25,57L55.166,57C57.001,57 58.76,56.394 60.057,55.316C61.354,54.238 62.083,52.775 62.083,51.25C62.083,49.725 61.354,48.262 60.057,47.184C58.76,46.106 57.001,45.5 55.166,45.5L48.25,45.5C46.415,45.5 44.656,46.106 43.359,47.184C42.062,48.262 41.333,49.725 41.333,51.25C41.333,52.775 42.062,54.238 43.359,55.316C44.656,56.394 46.415,57 48.25,57L48.25,57ZM131.25,103L124.333,103L124.333,5.25C124.333,3.725 123.604,2.262 122.307,1.184C121.01,0.106 119.251,-0.5 117.416,-0.5L20.583,-0.5C18.749,-0.5 16.989,0.106 15.692,1.184C14.395,2.262 13.666,3.725 13.666,5.25L13.666,103L6.75,103C4.915,103 3.156,103.606 1.859,104.684C0.562,105.762 -0.167,107.225 -0.167,108.75C-0.167,110.275 0.562,111.738 1.859,112.816C3.156,113.894 4.915,114.5 6.75,114.5L131.25,114.5C133.084,114.5 134.843,113.894 136.14,112.816C137.438,111.738 138.166,110.275 138.166,108.75C138.166,107.225 137.438,105.762 136.14,104.684C134.843,103.606 133.084,103 131.25,103ZM75.916,103L62.083,103L62.083,80L75.916,80L75.916,103ZM110.5,103L89.75,103L89.75,74.25C89.75,72.725 89.021,71.262 87.724,70.184C86.427,69.106 84.667,68.5 82.833,68.5L55.166,68.5C53.332,68.5 51.573,69.106 50.276,70.184C48.978,71.262 48.25,72.725 48.25,74.25L48.25,103L27.5,103L27.5,11L110.5,11L110.5,103Z" fill="#000000"/>
</svg>
