<svg width="118" height="116" viewBox="0 0 118 116" fill="none" xmlns="http://www.w3.org/2000/svg" xmlns:xlink="http://www.w3.org/1999/xlink">
<path d="M100.5,13.76C89.494,4.61 74.566,-0.53 59,-0.53C43.435,-0.53 28.507,4.61 17.5,13.76C6.494,22.91 0.311,35.32 0.311,48.26C0.311,61.2 6.494,73.61 17.5,82.76L53.951,113.12C54.594,113.659 55.359,114.087 56.202,114.379C57.045,114.671 57.949,114.821 58.862,114.821C59.775,114.821 60.679,114.671 61.522,114.379C62.365,114.087 63.13,113.659 63.773,113.12L100.5,82.473C111.461,73.361 117.618,61.002 117.618,48.116C117.618,35.23 111.461,22.872 100.5,13.76L100.5,13.76ZM90.61,74.25L59,100.643L27.391,74.25C21.147,69.054 16.895,62.435 15.174,55.231C13.454,48.026 14.341,40.559 17.724,33.774C21.107,26.989 26.834,21.189 34.181,17.109C41.528,13.029 50.165,10.852 59,10.852C67.836,10.852 76.473,13.029 83.82,17.109C91.167,21.189 96.894,26.989 100.277,33.774C103.66,40.559 104.547,48.026 102.827,55.231C101.106,62.435 96.854,69.054 90.61,74.25L90.61,74.25ZM38.25,30.608C32.667,35.264 29.531,41.57 29.531,48.145C29.531,54.72 32.667,61.026 38.25,65.683C42.399,69.137 47.682,71.496 53.437,72.464C59.192,73.432 65.163,72.966 70.6,71.123C76.038,69.281 80.699,66.144 84.001,62.108C87.302,58.071 89.096,53.314 89.157,48.433C89.188,45.174 88.433,41.942 86.936,38.93C85.439,35.918 83.231,33.186 80.442,30.895C77.701,28.564 74.432,26.707 70.824,25.43C67.216,24.153 63.34,23.482 59.418,23.455C55.497,23.428 51.608,24.046 47.975,25.274C44.342,26.501 41.037,28.314 38.25,30.608L38.25,30.608ZM70.69,57.518C68.069,59.73 64.604,61.117 60.89,61.441C57.175,61.765 53.44,61.006 50.324,59.294C47.207,57.582 44.903,55.024 43.805,52.056C42.706,49.088 42.882,45.895 44.302,43.023C45.722,40.151 48.298,37.778 51.59,36.31C54.881,34.842 58.684,34.371 62.348,34.975C66.011,35.58 69.308,37.225 71.675,39.627C74.042,42.029 75.332,45.04 75.324,48.145C75.223,51.694 73.432,55.065 70.344,57.518L70.69,57.518Z" fill="#000000"/>
</svg>
