<svg width="78" height="96" viewBox="0 0 78 96" fill="none" xmlns="http://www.w3.org/2000/svg" xmlns:xlink="http://www.w3.org/1999/xlink">
<path d="M30.5,75.5C31.627,75.5 32.708,75 33.505,74.109C34.302,73.218 34.75,72.01 34.75,70.75L34.75,42.25C34.75,40.99 34.302,39.782 33.505,38.891C32.708,38 31.627,37.5 30.5,37.5C29.373,37.5 28.292,38 27.495,38.891C26.698,39.782 26.25,40.99 26.25,42.25L26.25,70.75C26.25,72.01 26.698,73.218 27.495,74.109C28.292,75 29.373,75.5 30.5,75.5ZM73,18.5L56,18.5L56,13.75C56,9.971 54.657,6.346 52.266,3.674C49.875,1.001 46.632,-0.5 43.25,-0.5L34.75,-0.5C31.368,-0.5 28.125,1.001 25.734,3.674C23.343,6.346 22,9.971 22,13.75L22,18.5L5,18.5C3.873,18.5 2.792,19 1.995,19.891C1.198,20.782 0.75,21.99 0.75,23.25C0.75,24.51 1.198,25.718 1.995,26.609C2.792,27.5 3.873,28 5,28L9.25,28L9.25,80.25C9.25,84.029 10.593,87.654 12.984,90.326C15.375,92.999 18.618,94.5 22,94.5L56,94.5C59.382,94.5 62.625,92.999 65.016,90.326C67.407,87.654 68.75,84.029 68.75,80.25L68.75,28L73,28C74.127,28 75.208,27.5 76.005,26.609C76.802,25.718 77.25,24.51 77.25,23.25C77.25,21.99 76.802,20.782 76.005,19.891C75.208,19 74.127,18.5 73,18.5ZM30.5,13.75C30.5,12.49 30.948,11.282 31.745,10.391C32.542,9.5 33.623,9 34.75,9L43.25,9C44.377,9 45.458,9.5 46.255,10.391C47.052,11.282 47.5,12.49 47.5,13.75L47.5,18.5L30.5,18.5L30.5,13.75ZM60.25,80.25C60.25,81.51 59.802,82.718 59.005,83.609C58.208,84.5 57.127,85 56,85L22,85C20.873,85 19.792,84.5 18.995,83.609C18.198,82.718 17.75,81.51 17.75,80.25L17.75,28L60.25,28L60.25,80.25ZM47.5,75.5C48.627,75.5 49.708,75 50.505,74.109C51.302,73.218 51.75,72.01 51.75,70.75L51.75,42.25C51.75,40.99 51.302,39.782 50.505,38.891C49.708,38 48.627,37.5 47.5,37.5C46.373,37.5 45.292,38 44.495,38.891C43.698,39.782 43.25,40.99 43.25,42.25L43.25,70.75C43.25,72.01 43.698,73.218 44.495,74.109C45.292,75 46.373,75.5 47.5,75.5Z" fill="#000000"/>
</svg>
