<svg width="46" height="28" viewBox="0 0 46 28" fill="none" xmlns="http://www.w3.org/2000/svg" xmlns:xlink="http://www.w3.org/1999/xlink">
<path d="M44.71,2.208C43.909,1.432 42.825,0.997 41.695,0.997C40.565,0.997 39.481,1.432 38.68,2.208L23.325,16.958L8.184,2.208C7.383,1.432 6.299,0.997 5.169,0.997C4.039,0.997 2.955,1.432 2.153,2.208C1.752,2.596 1.434,3.056 1.217,3.564C1,4.072 0.888,4.617 0.888,5.167C0.888,5.717 1,6.261 1.217,6.769C1.434,7.277 1.752,7.738 2.153,8.125L20.288,25.792C20.686,26.182 21.159,26.492 21.68,26.704C22.201,26.915 22.76,27.024 23.325,27.024C23.89,27.024 24.449,26.915 24.97,26.704C25.491,26.492 25.964,26.182 26.362,25.792L44.71,8.125C45.111,7.738 45.429,7.277 45.647,6.769C45.864,6.261 45.975,5.717 45.975,5.167C45.975,4.617 45.864,4.072 45.647,3.564C45.429,3.056 45.111,2.596 44.71,2.208Z" fill="#000000"/>
</svg>
