<svg width="62" height="60" viewBox="0 0 62 60" fill="none" xmlns="http://www.w3.org/2000/svg" xmlns:xlink="http://www.w3.org/1999/xlink">
<path d="M61.459,37.75C61.451,35.999 60.829,34.291 59.671,32.845C58.514,31.4 56.875,30.284 54.967,29.642L61.356,9.225C61.49,8.79 61.504,8.335 61.397,7.895C61.291,7.455 61.066,7.042 60.742,6.688C60.41,6.356 59.995,6.092 59.528,5.916C59.061,5.739 58.553,5.654 58.042,5.667L11.234,5.667L10.106,1.992C9.91,1.37 9.479,0.822 8.88,0.431C8.28,0.041 7.546,-0.169 6.792,-0.166L-0.041,-0.166L-0.041,5.667L4.161,5.667L12.635,32.675C12.835,33.311 13.282,33.871 13.902,34.263C14.523,34.655 15.28,34.856 16.051,34.833L51.209,34.833C52.115,34.833 52.984,35.141 53.625,35.688C54.266,36.235 54.626,36.977 54.626,37.75C54.626,38.524 54.266,39.266 53.625,39.812C52.984,40.359 52.115,40.667 51.209,40.667L6.792,40.667C5.886,40.667 5.017,40.974 4.376,41.521C3.736,42.068 3.376,42.81 3.376,43.583C3.376,44.357 3.736,45.099 4.376,45.646C5.017,46.193 5.886,46.5 6.792,46.5L10.824,46.5C10.262,47.822 10.082,49.239 10.298,50.633C10.514,52.027 11.12,53.356 12.065,54.507C13.011,55.659 14.267,56.599 15.728,57.248C17.189,57.897 18.812,58.235 20.459,58.235C22.106,58.235 23.729,57.897 25.19,57.248C26.651,56.599 27.907,55.659 28.853,54.507C29.798,53.356 30.404,52.027 30.62,50.633C30.836,49.239 30.656,47.822 30.094,46.5L38.157,46.5C37.646,47.704 37.45,48.988 37.583,50.263C37.717,51.538 38.176,52.773 38.93,53.88C39.683,54.987 40.712,55.939 41.943,56.67C43.175,57.4 44.579,57.891 46.057,58.108C47.535,58.325 49.051,58.262 50.497,57.925C51.944,57.587 53.286,56.982 54.429,56.153C55.572,55.324 56.488,54.292 57.112,53.128C57.736,51.964 58.054,50.697 58.042,49.417C58.036,47.91 57.565,46.431 56.676,45.129C58.137,44.343 59.341,43.254 60.177,41.964C61.014,40.674 61.455,39.224 61.459,37.75L61.459,37.75ZM48.1,29L18.751,29L13.079,11.5L53.601,11.5L48.1,29ZM20.459,52.333C19.783,52.333 19.123,52.162 18.561,51.842C17.999,51.521 17.561,51.066 17.302,50.533C17.044,50 16.976,49.414 17.108,48.848C17.24,48.282 17.565,47.762 18.043,47.354C18.521,46.946 19.13,46.669 19.792,46.556C20.455,46.444 21.142,46.501 21.767,46.722C22.391,46.943 22.924,47.317 23.3,47.796C23.675,48.276 23.876,48.84 23.876,49.417C23.876,50.19 23.516,50.932 22.875,51.479C22.234,52.026 21.365,52.333 20.459,52.333ZM47.792,52.333C47.117,52.333 46.456,52.162 45.894,51.842C45.332,51.521 44.894,51.066 44.636,50.533C44.377,50 44.309,49.414 44.441,48.848C44.573,48.282 44.899,47.762 45.376,47.354C45.854,46.946 46.463,46.669 47.126,46.556C47.789,46.444 48.476,46.501 49.1,46.722C49.724,46.943 50.258,47.317 50.633,47.796C51.009,48.276 51.209,48.84 51.209,49.417C51.209,50.19 50.849,50.932 50.208,51.479C49.568,52.026 48.698,52.333 47.792,52.333Z" fill="#000000"/>
</svg>
