<svg width="138" height="114" viewBox="0 0 138 114" fill="none" xmlns="http://www.w3.org/2000/svg" xmlns:xlink="http://www.w3.org/1999/xlink">
<path d="M120.46,62.75C118.939,62.75 117.348,62.347 115.826,62.06C112.745,61.495 109.716,60.746 106.765,59.817C103.557,58.847 100.03,58.897 96.863,59.959C93.696,61.02 91.113,63.018 89.612,65.567L88.09,68.155C81.354,65.039 75.163,61.17 69.692,56.655C64.261,52.107 59.606,46.96 55.859,41.36L58.764,39.75C61.83,38.502 64.233,36.355 65.51,33.722C66.787,31.089 66.848,28.157 65.68,25.49C64.582,23.031 63.681,20.515 62.983,17.957C62.637,16.692 62.36,15.37 62.153,14.047C61.313,9.997 58.761,6.329 54.957,3.704C51.153,1.08 46.346,-0.33 41.403,-0.27L20.653,-0.27C17.672,-0.293 14.72,0.218 11.998,1.228C9.276,2.238 6.848,3.724 4.879,5.585C2.91,7.446 1.446,9.637 0.587,12.01C-0.271,14.383 -0.505,16.882 -0.097,19.337C3.588,43.426 16.821,65.808 37.513,82.947C58.205,100.087 85.176,111.007 114.166,113.982L116.794,113.982C121.895,113.989 126.819,112.433 130.628,109.612C132.816,107.985 134.564,105.991 135.756,103.761C136.949,101.53 137.558,99.115 137.544,96.675L137.544,79.425C137.46,75.431 135.71,71.585 132.595,68.544C129.479,65.503 125.19,63.455 120.46,62.75L120.46,62.75ZM123.919,97.25C123.917,98.066 123.707,98.873 123.302,99.617C122.896,100.36 122.305,101.024 121.567,101.562C120.794,102.117 119.89,102.531 118.914,102.779C117.937,103.027 116.909,103.102 115.895,103C89.992,100.239 65.931,90.387 47.508,74.999C29.086,59.611 17.35,39.562 14.151,18.015C14.041,17.173 14.138,16.321 14.435,15.51C14.732,14.7 15.224,13.948 15.88,13.3C16.528,12.687 17.326,12.195 18.221,11.858C19.115,11.521 20.086,11.346 21.068,11.345L41.818,11.345C43.426,11.315 44.997,11.752 46.259,12.582C47.522,13.411 48.397,14.58 48.734,15.887C49.011,17.459 49.357,19.012 49.772,20.545C50.571,23.576 51.634,26.555 52.954,29.457L43.27,33.195C42.442,33.511 41.698,33.959 41.079,34.515C40.46,35.071 39.979,35.723 39.664,36.433C39.35,37.144 39.207,37.899 39.244,38.656C39.281,39.412 39.498,40.155 39.881,40.842C49.836,58.568 66.975,72.817 88.298,81.092C89.982,81.667 91.871,81.667 93.554,81.092C94.417,80.836 95.21,80.439 95.887,79.926C96.563,79.413 97.111,78.793 97.497,78.102L101.785,70.052C105.361,71.115 109.01,71.999 112.714,72.697C114.558,73.042 116.426,73.33 118.316,73.56C119.889,73.84 121.295,74.568 122.293,75.618C123.29,76.667 123.816,77.973 123.78,79.31L123.919,97.25Z" fill="#000000"/>
</svg>
