<svg width="92" height="88" viewBox="0 0 92 88" fill="none" xmlns="http://www.w3.org/2000/svg" xmlns:xlink="http://www.w3.org/1999/xlink">
<path d="M46,0C52.1,0 57.95,2.318 62.263,6.444C66.577,10.569 69,16.165 69,22C69,27.835 66.577,33.431 62.263,37.556C57.95,41.682 52.1,44 46,44C39.9,44 34.05,41.682 29.737,37.556C25.423,33.431 23,27.835 23,22C23,16.165 25.423,10.569 29.737,6.444C34.05,2.318 39.9,0 46,0ZM46,55C71.415,55 92,64.845 92,77L92,88L0,88L0,77C0,64.845 20.585,55 46,55Z" fill="#000000"/>
</svg>
