<svg width="22" height="14" viewBox="0 0 22 14" fill="none" xmlns="http://www.w3.org/2000/svg" xmlns:xlink="http://www.w3.org/1999/xlink">
<path d="M20,0.34C19.626,-0.033 19.119,-0.242 18.59,-0.242C18.062,-0.242 17.555,-0.033 17.18,0.34L10,7.42L2.92,0.34C2.546,-0.033 2.039,-0.242 1.51,-0.242C0.982,-0.242 0.475,-0.033 0.1,0.34C-0.087,0.526 -0.236,0.747 -0.337,0.991C-0.439,1.234 -0.491,1.496 -0.491,1.76C-0.491,2.024 -0.439,2.285 -0.337,2.529C-0.236,2.773 -0.087,2.994 0.1,3.18L8.58,11.66C8.766,11.847 8.988,11.996 9.231,12.098C9.475,12.199 9.736,12.251 10,12.251C10.264,12.251 10.526,12.199 10.77,12.098C11.013,11.996 11.234,11.847 11.42,11.66L20,3.18C20.188,2.994 20.337,2.773 20.438,2.529C20.54,2.285 20.592,2.024 20.592,1.76C20.592,1.496 20.54,1.234 20.438,0.991C20.337,0.747 20.188,0.526 20,0.34Z" fill="#000000"/>
</svg>
