<svg width="82" height="98" viewBox="0 0 82 98" fill="none" xmlns="http://www.w3.org/2000/svg" xmlns:xlink="http://www.w3.org/1999/xlink">
<path d="M71.167,32.667L66.083,32.667L66.083,23.333C66.083,10.453 54.697,0 40.667,0C26.637,0 15.25,10.453 15.25,23.333L15.25,32.667L10.167,32.667C4.575,32.667 0,36.867 0,42L0,88.667C0,93.8 4.575,98 10.167,98L71.167,98C76.758,98 81.333,93.8 81.333,88.667L81.333,42C81.333,36.867 76.758,32.667 71.167,32.667ZM40.667,74.667C35.075,74.667 30.5,70.467 30.5,65.333C30.5,60.2 35.075,56 40.667,56C46.258,56 50.833,60.2 50.833,65.333C50.833,70.467 46.258,74.667 40.667,74.667ZM56.425,32.667L24.908,32.667L24.908,23.333C24.908,15.353 31.974,8.867 40.667,8.867C49.359,8.867 56.425,15.353 56.425,23.333L56.425,32.667Z" fill="#000000"/>
</svg>
