<svg width="110" height="88" viewBox="0 0 110 88" fill="none" xmlns="http://www.w3.org/2000/svg" xmlns:xlink="http://www.w3.org/1999/xlink">
<path d="M96.25,29.333L89.375,29.333L89.375,20.952C89.375,9.387 73.975,0 55,0C36.025,0 20.625,9.387 20.625,20.952L20.625,29.333L13.75,29.333C6.188,29.333 0,33.105 0,37.714L0,79.619C0,84.229 6.188,88 13.75,88L96.25,88C103.812,88 110,84.229 110,79.619L110,37.714C110,33.105 103.812,29.333 96.25,29.333ZM55,67.048C47.438,67.048 41.25,63.276 41.25,58.667C41.25,54.057 47.438,50.286 55,50.286C62.562,50.286 68.75,54.057 68.75,58.667C68.75,63.276 62.562,67.048 55,67.048ZM76.312,29.333L33.687,29.333L33.687,20.952C33.687,13.787 43.244,7.962 55,7.962C66.756,7.962 76.312,13.787 76.312,20.952L76.312,29.333Z" fill="#000000"/>
</svg>
