<svg width="166" height="138" viewBox="0 0 166 138" fill="none" xmlns="http://www.w3.org/2000/svg" xmlns:xlink="http://www.w3.org/1999/xlink">
<path d="M113.821,73.894C121.999,68.575 127.968,61.281 130.897,53.027C133.827,44.772 133.572,35.968 130.168,27.839C126.764,19.71 120.379,12.66 111.904,7.671C103.428,2.681 93.281,0 82.876,0C72.471,0 62.325,2.681 53.849,7.671C45.373,12.66 38.989,19.71 35.585,27.839C32.18,35.968 31.925,44.772 34.855,53.027C37.785,61.281 43.754,68.575 51.931,73.894C37.919,78.536 25.693,86.234 16.556,96.168C7.42,106.102 1.715,117.9 0.05,130.304C-0.07,131.209 0.026,132.126 0.334,133.001C0.642,133.875 1.155,134.691 1.845,135.402C3.237,136.838 5.262,137.757 7.474,137.958C9.686,138.16 11.904,137.626 13.64,136.475C15.377,135.324 16.489,133.65 16.732,131.821C18.564,118.341 26.338,105.891 38.571,96.85C50.803,87.809 66.636,82.811 83.043,82.811C99.451,82.811 115.283,87.809 127.515,96.85C139.748,105.891 147.522,118.341 149.354,131.821C149.581,133.515 150.559,135.08 152.099,136.214C153.639,137.347 155.633,137.969 157.695,137.958L158.612,137.958C160.799,137.75 162.797,136.836 164.172,135.415C165.547,133.995 166.187,132.182 165.952,130.373C164.28,117.934 158.545,106.106 149.361,96.156C140.177,86.207 127.892,78.511 113.821,73.894L113.821,73.894ZM82.876,68.998C76.278,68.998 69.827,67.38 64.34,64.349C58.854,61.318 54.577,57.01 52.052,51.97C49.527,46.93 48.866,41.383 50.153,36.033C51.441,30.682 54.618,25.767 59.284,21.909C63.95,18.051 69.895,15.424 76.367,14.36C82.839,13.296 89.548,13.842 95.644,15.93C101.741,18.017 106.951,21.553 110.617,26.089C114.283,30.625 116.24,35.958 116.24,41.414C116.24,48.73 112.725,55.746 106.468,60.919C100.211,66.092 91.725,68.998 82.876,68.998Z" fill="#000000"/>
</svg>
